<mxfile host="app.diagrams.net" modified="2023-07-22T15:37:36.302Z" agent="Mozilla/5.0 (Windows NT 10.0; Win64; x64) AppleWebKit/537.36 (KHTML, like Gecko) Chrome/114.0.0.0 Safari/537.36 Edg/114.0.1823.82" etag="T2rJ8MqjWBrAkgp6cd4m" version="21.6.5" type="github">
  <diagram name="第 1 页" id="ZcAUqdVBc1bofJjO1CUg">
    <mxGraphModel dx="1434" dy="1925" grid="1" gridSize="10" guides="1" tooltips="1" connect="1" arrows="1" fold="1" page="1" pageScale="1" pageWidth="827" pageHeight="1169" math="0" shadow="0">
      <root>
        <mxCell id="0" />
        <mxCell id="1" parent="0" />
        <mxCell id="mtHZ6Vd2v5qxiUZSjQSr-3" value="" style="edgeStyle=orthogonalEdgeStyle;rounded=0;orthogonalLoop=1;jettySize=auto;html=1;" edge="1" parent="1" source="mtHZ6Vd2v5qxiUZSjQSr-1" target="mtHZ6Vd2v5qxiUZSjQSr-2">
          <mxGeometry relative="1" as="geometry" />
        </mxCell>
        <mxCell id="mtHZ6Vd2v5qxiUZSjQSr-1" value="" style="rounded=0;whiteSpace=wrap;html=1;" vertex="1" parent="1">
          <mxGeometry x="170" y="-550" width="120" height="60" as="geometry" />
        </mxCell>
        <mxCell id="mtHZ6Vd2v5qxiUZSjQSr-2" value="" style="rounded=0;whiteSpace=wrap;html=1;" vertex="1" parent="1">
          <mxGeometry x="170" y="-410" width="120" height="60" as="geometry" />
        </mxCell>
      </root>
    </mxGraphModel>
  </diagram>
</mxfile>
